<svg xmlns="http://www.w3.org/2000/svg" width="256" height="256"><path fill-opacity=".016" d="M0 128.004v128.004l128.25-.254 128.25-.254.254-127.75L257.008 0H0v128.004m.485.496c0 70.4.119 99.053.265 63.672.146-35.38.146-92.98 0-128C.604 29.153.485 58.1.485 128.5" fill="#1976D2" fill-rule="evenodd"/><path fill-opacity=".131" d="M72 41.912c-5.844 1.22-9.795 3.882-12.428 8.374l-2.505 4.275-.243 35.97c-.133 19.783-.404 43.545-.602 52.806l-.359 16.836-7.181-.334-7.182-.333-.299 9.997c-.343 11.463.931 17.286 4.684 21.407 5.833 6.402 6.516 6.559 30.186 6.923l21.663.333 2.133-3.451c1.173-1.898 2.133-3.735 2.133-4.083 0-.348-10.104-.632-22.453-.632-15.303 0-23.29-.381-25.08-1.197-4.035-1.838-6.467-7.602-6.467-15.326v-6.603l29.75.131c16.363.071 31.18.099 32.927.062 2.443-.051 3.498-.712 4.569-2.859.766-1.535 1.25-3.223 1.074-3.75-.195-.588-10.349-.843-26.319-.661L64 160.095V55.392l3.555-3.446 3.554-3.446 43.946-.28c24.17-.154 43.938.071 43.93.5-.008.429-.664 2.58-1.456 4.78-.959 2.661-1.456 8.267-1.485 16.75L156 83h7V71.052l15.25-.276 15.25-.276.293-6.632c.401-9.085-3.184-16.96-9.185-20.17-4.07-2.178-4.594-2.199-56.608-2.358-28.875-.087-54.075.17-56 .572m98 8.79c-3.736 1.919-7.445 7.974-6.459 10.544.434 1.132 2.734 1.623 9.186 1.961 12.341.648 13.273.357 13.273-4.136 0-7.422-8.841-12.046-16-8.369m-92.75 20.96c-1.865.753-1.561 6.281.386 7.029 3.851 1.477 6.963-3.763 3.702-6.235-1.99-1.507-2.212-1.551-4.088-.794m11.333.901c-2.045 1.495-1.787 4.279.531 5.739 2.559 1.611 4.886.109 4.886-3.154 0-3.369-2.629-4.624-5.417-2.585m10.885.472c-1.795 1.983-1.785 2.092.359 4.236 1.746 1.746 2.56 1.975 3.937 1.108 2.453-1.545 2.773-4.513.654-6.063-2.375-1.736-2.781-1.678-4.95.719m12.061-.68c-2.05 1.499-1.731 4.488.637 5.98 1.208.76 2.102.687 3.25-.265 3.633-3.016-.091-8.491-3.887-5.715m10.075.995c-.317 1.182-.583 4.413-.59 7.178-.028 10.204-10.033 25.192-21.174 31.719-5.224 3.06-10.32 4.488-18.34 5.136-3.3.267-6.141.515-6.313.551-.173.036-.173 1.529 0 3.316.29 3.008.611 3.274 4.313 3.578 6.012.493 14.794-1.559 21.77-5.088 8.219-4.157 18.381-14.383 22.102-22.24 1.563-3.3 3.297-6.97 3.853-8.155.556-1.185.725-2.616.377-3.181a1.204 1.204 0 0 1 .382-1.654c.559-.345 1.016-3.481 1.016-6.969V71.2h-3.41c-2.643 0-3.539.483-3.986 2.15m13.058-.894c-3.261 2.472-.149 7.712 3.702 6.235 2.153-.826 2.194-6.263.054-7.084-1.923-.738-1.55-.822-3.756.849M77.25 83.662c-2.019.815-1.465 5.153.814 6.372 3.689 1.974 6.755-2.815 3.736-5.834-1.25-1.25-2.437-1.391-4.55-.538m14.175 5.781C90.627 92.623 91.556 94 94.5 94s3.873-1.377 3.075-4.557C97.133 87.68 96.277 87 94.5 87c-1.777 0-2.633.68-3.075 2.443m46.242 2.224c-1.512 1.511-.625 5.531 1.333 6.043 1.886.494 1.999 1.356 1.98 15.157l-.019 14.633-7.899 15.799c-4.344 8.69-8.44 16.452-9.103 17.25-.662.798-.957 1.451-.655 1.451.302 0-3.241 7.528-7.875 16.728-4.633 9.201-8.695 18.171-9.026 19.935-.873 4.658 1.121 9.575 5.544 13.668l3.877 3.586 42.838.051c48.363.057 47.779.141 52.056-7.468 4.214-7.495 3.715-9.145-12.543-41.5-8.153-16.225-15.288-30.4-15.856-31.5-.569-1.1-1.773-3.419-2.676-5.154-2.283-4.384-2.435-31.105-.181-31.97 2.065-.792 2.928-4.202 1.498-5.924-.982-1.184-5.03-1.452-21.916-1.452-11.391 0-21.011.3-21.377.667m-61.283 4.775c-1.065 2.775.072 5.058 2.521 5.058 2.753 0 4.695-2.495 3.786-4.864-.779-2.029-5.547-2.175-6.307-.194m26.227.13c-.864 2.25 1.121 5.428 3.389 5.428s4.253-3.178 3.389-5.428C109.041 95.663 107.611 95 106 95c-1.611 0-3.041.663-3.389 1.572M149 114.53v15.53l-4.431 8.47-4.431 8.47h38.888l-4.513-8.869-4.513-8.868V99h-21v15.53m-72.333-7.863c-.367.366-.667 1.941-.667 3.5 0 2.126.479 2.833 1.918 2.833 4.678 0 6.684-2.998 3.882-5.8-1.307-1.307-4.072-1.595-5.133-.533m46 4c-1.05 1.05-.778 5.146.39 5.868.581.359 2.156.377 3.5.04 1.732-.435 2.443-1.304 2.443-2.987 0-2.907-4.344-4.911-6.333-2.921m-46 19c-1.43 1.429-.579 5.31 1.397 6.367 3.689 1.974 6.755-2.815 3.736-5.834-1.307-1.307-4.072-1.595-5.133-.533m1.083 11.413c-2.177 1.268-2.296 5.496-.178 6.309 3.804 1.46 7.08-3.337 4.228-6.189-1.433-1.433-1.778-1.443-4.05-.12" fill="#1976D2" fill-rule="evenodd"/><path fill-opacity=".34" d="M73 41.867c-5.128.927-9.29 3.515-12.586 7.824L57.5 53.5l-.283 53.25-.284 53.25H41.841l.33 12.931c.369 14.506 1.032 16.177 8.425 21.246l3.904 2.676 21.709.103 21.709.104 1.541-2.981c.848-1.639 1.541-3.115 1.542-3.279.001-.165-10.023-.164-22.274.001l-22.275.302-3.975-3.436-3.975-3.436-.353-8.616-.354-8.615h32.48c34.341 0 33.687.088 35.165-4.733l.684-2.234-26.312-.266L63.5 159.5v-51.677c0-50.905.031-51.72 2.096-54.5 1.153-1.553 3.178-3.379 4.5-4.058 3.14-1.614 89.904-1.835 89.904-.23 0 .57-.787 2.236-1.75 3.703-1.449 2.209-1.75 4.996-1.75 16.215V82.5l3.328.319 3.328.319-.167-4.819c-.092-2.65-.127-5.37-.078-6.043.065-.895 4.19-1.298 15.339-1.5l15.25-.276v-7c0-9.497-3.157-15.976-9.5-19.5l-4.5-2.5-51.5-.133c-28.325-.073-53.075.152-55 .5m95.381 9.043c-3.483 2.123-5.674 7.074-4.754 10.74.6 2.392.702 2.411 11.739 2.132 10.824-.274 11.143-.347 11.466-2.627 1.28-9.039-10.083-15.348-18.451-10.245M77.25 72.651c-1.718.709-1.572 3.837.25 5.349 2.003 1.662 4.717-.486 4.298-3.402-.299-2.086-2.219-2.908-4.548-1.947m12 .011c-1.718.694-1.571 3.826.25 5.338 1.846 1.532 4.5-.246 4.5-3.015 0-1.368-2.312-3.384-3.332-2.906-.092.043-.73.306-1.418.583m11 0c-1.718.694-1.571 3.826.25 5.338 1.846 1.532 4.5-.246 4.5-3.015 0-1.368-2.312-3.384-3.332-2.906-.092.043-.73.306-1.418.583m12 .005c-1.839.735-1.522 5.015.428 5.763 2.449.94 5.091-1.988 3.734-4.139-1.197-1.897-2.353-2.348-4.162-1.624m9.019 7.942c-.744 5.458-2.143 10.492-3.82 13.75-2.656 5.16-9.602 13.102-14.656 16.758C98.295 114.371 86.937 118 81.254 118c-5.171 0-5.254.047-5.254 3 0 2.955.079 3 5.29 3 11.195 0 23.862-5.322 32.178-13.52 8.7-8.578 14.532-21.896 14.532-33.19 0-5.117-.091-5.29-2.778-5.29-2.732 0-2.799.144-3.953 8.609m12.798-6.735c-1.426 2.665 2.151 6.02 4.414 4.142 1.981-1.644 1.946-4.638-.063-5.409-2.504-.961-3.279-.735-4.351 1.267M76.389 85.43c-.996 2.595.399 4.739 2.857 4.39 1.652-.235 2.254-.987 2.254-2.82 0-1.833-.602-2.585-2.254-2.82-1.353-.192-2.496.308-2.857 1.25m14.943 4.148c-.784 2.042 2.048 4.874 4.09 4.09.868-.333 1.578-1.744 1.578-3.137C97 88.49 96.51 88 94.469 88c-1.393 0-2.804.71-3.137 1.578M138.2 92.2c-1.768 1.768-1.464 3.588.8 4.8 1.866.999 2 2.094 2 16.35v15.28l-16.75 33.539c-9.213 18.447-16.828 33.951-16.923 34.454-.095.503-.433 2.031-.751 3.396-.865 3.714 4.074 12.056 8.424 14.229 3.164 1.581 7.498 1.749 45.102 1.75l41.602.002 3.398-2.287c1.869-1.258 4.363-4.126 5.542-6.374 2.875-5.479 1.876-10.65-4.491-23.247-4.722-9.34-8.059-15.999-18.336-36.592-2.745-5.5-5.5-10.615-6.123-11.366-2.759-3.331-3.664-9.09-3.679-23.415-.012-12.227.244-14.881 1.485-15.357.825-.317 1.5-1.583 1.5-2.813 0-2.182-.357-2.254-14.25-2.89-20.699-.947-27.185-.824-28.55.541m-61.679 4.733c-.881 2.776.104 4.067 3.104 4.067 2.146 0 2.462-.397 2.191-2.75-.401-3.492-4.297-4.461-5.295-1.317m26.966.109c-.82 2.582.596 4.281 3.157 3.788 1.215-.234 1.856-1.217 1.856-2.844 0-3.346-4.011-4.102-5.013-.944m55.462 1.74-10.552.282.419 14.754.419 14.753-4.617 9.195c-2.54 5.057-4.618 9.428-4.618 9.714 0 .286 8.775.52 19.5.52s19.497-.338 19.494-.75c-.004-.412-1.801-4.35-3.994-8.75l-3.987-8-.007-15.691c-.003-8.63-.344-15.83-.756-16-.412-.17-5.498-.182-11.301-.027m-82.24 8.842c-1.443 1.444-.644 4.262 1.392 4.908 2.528.803 4.217-.634 3.733-3.176-.358-1.874-3.815-3.042-5.125-1.732m46.541 3.038c-1.752.707-1.563 5.004.25 5.7 3.627 1.392 6.056-2.406 3.3-5.162-1.279-1.279-1.595-1.327-3.55-.538m-46.756 20.347c-.342.555-.33 1.931.027 3.058.998 3.144 4.894 2.175 5.295-1.317.271-2.353-.045-2.75-2.191-2.75-1.379 0-2.788.454-3.131 1.009m-.105 11.421c-.996 2.595.399 4.739 2.857 4.39 1.652-.235 2.254-.987 2.254-2.82 0-1.833-.602-2.585-2.254-2.82-1.353-.192-2.496.308-2.857 1.25" fill="#1976D2" fill-rule="evenodd"/><path fill-opacity=".986" d="M70.713 42.964c-4.049.784-9.001 4.83-11.302 9.236-1.128 2.159-1.436 9.675-1.536 37.5-.068 19.14-.406 42.9-.75 52.8l-.625 18-7.25.294-7.25.294v10.64c0 11.963 1.704 17.198 6.831 20.989 4.797 3.546 9.866 4.272 29.9 4.277l19.231.006.627-2.5c.345-1.375 1.142-2.593 1.769-2.707.628-.113-9.538-.451-22.591-.75l-23.733-.543-3.242-3.244c-3.156-3.159-3.242-3.474-3.267-12L47.5 166.5l32.644-.264 32.644-.263 1.618-2.47 1.618-2.47-26.262-.266L63.5 160.5l-.259-52.604c-.251-51.133-.203-52.674 1.723-55.123C69.463 47.054 69.944 47 116.901 47c35.891 0 43.099.23 43.099 1.374 0 .756-.675 3.288-1.5 5.626-1.01 2.864-1.5 8.127-1.5 16.126V82h2.805c2.754 0 2.804-.104 2.75-5.75l-.055-5.75 15.25-.276 15.25-.276-.016-7.224c-.026-11.283-4.817-17.997-14.126-19.795-5.31-1.026-102.832-.995-108.145.035m99.787 6.391c-4.723 2.16-6.819 5.162-6.914 9.905l-.086 4.24 8.5.5c4.675.275 9.963.338 11.75.141 3.051-.338 3.25-.6 3.25-4.265 0-7.982-9.21-13.855-16.5-10.521M78.152 72.906c-1.818 1.124-1.055 4.489 1.113 4.906.957.185 2.026-.407 2.375-1.316.818-2.132-1.683-4.706-3.488-3.59m10.809.641c-1.579 1.902-.414 4.686 1.786 4.267 2.198-.419 2.874-4.362.879-5.127-.814-.313-2.013.074-2.665.86m23.05-.06c-1.468 1.769-.656 4.513 1.335 4.513.775 0 1.969-.675 2.654-1.5.993-1.197.993-1.803 0-3-1.565-1.886-2.433-1.889-3.989-.013m10.596.095c-.334.87-.607 3.945-.607 6.833 0 2.888-.338 5.589-.75 6.002-.412.412-.789 1.05-.836 1.416-.048.367-.452 1.567-.898 2.667-.446 1.1-1.358 3.371-2.027 5.046-.669 1.675-3.785 5.82-6.925 9.212-7.444 8.04-15.953 12.243-26.564 13.121-7.366.61-7.506.673-7.831 3.521l-.331 2.901 7.641-.578c4.203-.318 8.218-1.057 8.923-1.642.705-.585 1.578-.768 1.94-.406.362.362.658.114.658-.552s.563-1.119 1.25-1.006c3.541.578 14.161-6.732 20.443-14.072 3.522-4.114 8.307-12.913 8.307-15.274 0-.791.309-1.747.687-2.125.842-.842 1.31-3.419 1.977-10.896.5-5.593.446-5.75-1.968-5.75-1.365 0-2.755.712-3.089 1.582m12.354-.035c-1.579 1.902-.414 4.686 1.786 4.267 2.198-.419 2.874-4.362.879-5.127-.814-.313-2.013.074-2.665.86m-35.488.497c-.782 1.265 1.281 3.956 3.033 3.956 1.327 0 2.675-3.486 1.719-4.442-.94-.94-4.069-.62-4.752.486M77.362 85.5c-.784 2.043.37 4.756 1.817 4.274.648-.216 1.66-1.167 2.25-2.112.813-1.305.71-1.949-.429-2.675-2.103-1.341-2.974-1.218-3.638.513m15.002 3.993c-.346.903-.15 2.121.436 2.707 1.524 1.524 4.41.131 4.012-1.935-.443-2.302-3.647-2.858-4.448-.772m45.929 4.185c-.422 1.1.105 2.174 1.532 3.122 2.069 1.374 2.175 2.159 2.175 16.125v14.682l-16.513 32.873c-9.082 18.081-17.024 34.579-17.648 36.664-1.632 5.446 1.016 12.014 6.422 15.93L118.3 216h41.202c41.082 0 41.212-.007 44.508-2.25 4.777-3.251 7.141-6.909 7.706-11.923.431-3.827-.143-5.635-4.404-13.864-2.695-5.205-5.521-11.038-6.281-12.963-.759-1.925-2.141-4.625-3.07-6-.929-1.375-2.291-4.187-3.026-6.25-.735-2.062-1.625-3.75-1.978-3.75-.352 0-1.174-1.781-1.826-3.958-.652-2.177-1.634-4.235-2.182-4.573-.548-.339-2.349-3.6-4.002-7.247-1.654-3.647-3.738-7.439-4.632-8.426-.894-.988-1.319-1.796-.944-1.796.374 0-.006-1.328-.845-2.95-1.155-2.233-1.526-6.358-1.526-16.961 0-13.005.153-14.153 2.128-15.994 1.238-1.153 1.879-2.634 1.532-3.539-.514-1.338-3.476-1.556-21.16-1.556-18.324 0-20.633.183-21.207 1.678M77.362 96.5c-.82 2.136.303 4.5 2.138 4.5 2.12 0 3.006-2.685 1.489-4.513-1.574-1.897-2.896-1.893-3.627.013m26.638 0c-.993 1.197-.993 1.803 0 3 1.632 1.966 3.629 1.909 4.41-.127.612-1.594-.919-4.373-2.41-4.373-.415 0-1.315.675-2 1.5m44.698 2.135c-.384.384-.698 7.608-.698 16.054v15.355L144 138c-2.2 4.376-4 8.416-4 8.978 0 .662 7.044 1.022 20 1.022 11 0 20-.282 20-.627 0-.345-1.912-4.057-4.25-8.25l-4.25-7.623-.5-16.5-.5-16.5-10.552-.282c-5.803-.155-10.865.033-11.25.417m-71.031 9.032c-1.184 1.183-.709 4.103.76 4.667 1.829.701 3.974-1.847 3.216-3.821-.597-1.558-2.797-2.026-3.976-.846m45.697 4.826c-.346.903-.15 2.121.436 2.707 1.524 1.524 4.41.131 4.012-1.935-.443-2.302-3.647-2.858-4.448-.772m-45.697 18.174c-1.05 1.05-.779 4.146.429 4.892 1.556.962 4.297-2.093 3.572-3.981-.618-1.612-2.803-2.11-4.001-.911m-.273 11.75c-.683 1.779.132 4.591 1.325 4.568.429-.009 1.456-.446 2.281-.972 1.139-.726 1.242-1.37.429-2.675-1.489-2.388-3.313-2.804-4.035-.921M166 192c0 .55.477 1 1.059 1s.781-.45.441-1-.816-1-1.059-1-.441.45-.441 1" fill="#1976D2" fill-rule="evenodd"/></svg>